<svg
    xmlns="http://www.w3.org/2000/svg"
    xmlns:xlink="http://www.w3.org/1999/xlink" width="122px" zoomAndPan="magnify" viewBox="0 0 375 374.999991" height="94px" preserveAspectRatio="xMidYMid meet" version="1.0">
    <defs>
        <clipPath id="2f45fa0f5f">
            <path d="M 136 7 L 239 7 L 239 122 L 136 122 Z M 136 7 " clip-rule="nonzero"/>
        </clipPath>
        <clipPath id="9bc34e69e1">
            <path d="M 187.734375 24.785156 C 180.914062 27.664062 174.917969 31.53125 169.816406 35.609375 C 173.941406 19.078125 178.859375 7.613281 178.859375 7.613281 L 142.320312 7.613281 C 117.292969 82.714844 175.480469 121.964844 175.480469 121.964844 C 164.214844 103.9375 162.917969 81.117188 165.234375 60.609375 C 174.960938 60.945312 187.855469 59.984375 200.339844 54.71875 C 225.140625 44.273438 238.933594 20.828125 238.933594 20.828125 C 238.933594 20.828125 212.519531 14.328125 187.734375 24.785156 " clip-rule="nonzero"/>
        </clipPath>
        <clipPath id="d31fd39f8a">
            <path d="M 18.210938 80 L 356.789062 80 L 356.789062 367.480469 L 18.210938 367.480469 Z M 18.210938 80 " clip-rule="nonzero"/>
        </clipPath>
        <clipPath id="51f44a3360">
            <path d="M 62.285156 222.109375 C 62.285156 222.109375 9.5 345.261719 123.851562 366.242188 C 123.851562 366.242188 193.550781 381.800781 205.730469 298.582031 C 205.730469 298.582031 263.25 367.597656 318.726562 337.832031 C 374.203125 308.066406 370.15625 222.796875 290.988281 216.035156 C 290.988281 216.035156 341.730469 157.164062 290.316406 111.152344 C 238.90625 65.144531 183.410156 90.175781 171.230469 114.535156 C 171.230469 114.535156 104.242188 46.875 41.320312 101.683594 C 41.320312 101.683594 -20.933594 161.226562 62.300781 222.125 " clip-rule="nonzero"/>
        </clipPath>
        <clipPath id="97bb69e725">
            <path d="M 129 136 L 195.757812 136 L 195.757812 242 L 129 242 Z M 129 136 " clip-rule="nonzero"/>
        </clipPath>
        <clipPath id="396b27406a">
            <path d="M 195.195312 188.953125 C 195.195312 218.105469 180.503906 241.734375 162.371094 241.734375 C 144.238281 241.734375 129.5625 218.105469 129.5625 188.953125 C 129.5625 159.796875 144.253906 136.167969 162.371094 136.167969 C 180.488281 136.167969 195.195312 159.796875 195.195312 188.953125 " clip-rule="nonzero"/>
        </clipPath>
        <clipPath id="c853f02b82">
            <path d="M 216 136 L 282 136 L 282 242 L 216 242 Z M 216 136 " clip-rule="nonzero"/>
        </clipPath>
        <clipPath id="9b9651ff8b">
            <path d="M 281.808594 188.953125 C 281.808594 218.105469 267.117188 241.734375 248.984375 241.734375 C 230.851562 241.734375 216.175781 218.105469 216.175781 188.953125 C 216.175781 159.796875 230.867188 136.167969 248.984375 136.167969 C 267.101562 136.167969 281.808594 159.796875 281.808594 188.953125 " clip-rule="nonzero"/>
        </clipPath>
        <clipPath id="f536abf774">
            <path d="M 158 187 L 191 187 L 191 220 L 158 220 Z M 158 187 " clip-rule="nonzero"/>
        </clipPath>
        <clipPath id="0d565c7ec9">
            <path d="M 190.839844 203.339844 C 190.839844 212.304688 183.5625 219.582031 174.597656 219.582031 C 165.628906 219.582031 158.351562 212.304688 158.351562 203.339844 C 158.351562 194.371094 165.613281 187.09375 174.597656 187.09375 C 183.578125 187.09375 190.839844 194.371094 190.839844 203.339844 " clip-rule="nonzero"/>
        </clipPath>
        <clipPath id="7fa251d439">
            <path d="M 244 186 L 278 186 L 278 218.835938 L 244 218.835938 Z M 244 186 " clip-rule="nonzero"/>
        </clipPath>
        <clipPath id="cf98017731">
            <path d="M 277.453125 202.484375 C 277.453125 211.453125 270.175781 218.730469 261.207031 218.730469 C 252.242188 218.730469 244.964844 211.453125 244.964844 202.484375 C 244.964844 193.519531 252.226562 186.242188 261.207031 186.242188 C 270.191406 186.242188 277.453125 193.519531 277.453125 202.484375 " clip-rule="nonzero"/>
        </clipPath>
    </defs>
    <g clip-path="url(#2f45fa0f5f)">
        <g clip-path="url(#9bc34e69e1)">
            <path fill="#34a438" d="M 11.328125 0 L 363.671875 0 L 363.671875 374.363281 L 11.328125 374.363281 Z M 11.328125 0 " fill-opacity="1" fill-rule="nonzero"/>
        </g>
    </g>
    <g clip-path="url(#d31fd39f8a)">
        <g clip-path="url(#51f44a3360)">
            <path fill="#f5c01b" d="M 11.328125 0 L 363.671875 0 L 363.671875 374.363281 L 11.328125 374.363281 Z M 11.328125 0 " fill-opacity="1" fill-rule="nonzero"/>
        </g>
    </g>
    <g clip-path="url(#97bb69e725)">
        <g clip-path="url(#396b27406a)">
            <path fill="#ffffff" d="M 11.328125 0 L 363.671875 0 L 363.671875 374.363281 L 11.328125 374.363281 Z M 11.328125 0 " fill-opacity="1" fill-rule="nonzero"/>
        </g>
    </g>
    <g clip-path="url(#c853f02b82)">
        <g clip-path="url(#9b9651ff8b)">
            <path fill="#ffffff" d="M 11.328125 0 L 363.671875 0 L 363.671875 374.363281 L 11.328125 374.363281 Z M 11.328125 0 " fill-opacity="1" fill-rule="nonzero"/>
        </g>
    </g>
    <g clip-path="url(#f536abf774)">
        <g clip-path="url(#0d565c7ec9)">
            <path fill="#050101" d="M 11.328125 0 L 363.671875 0 L 363.671875 374.363281 L 11.328125 374.363281 Z M 11.328125 0 " fill-opacity="1" fill-rule="nonzero"/>
        </g>
    </g>
    <g clip-path="url(#7fa251d439)">
        <g clip-path="url(#cf98017731)">
            <path fill="#050101" d="M 11.328125 0 L 363.671875 0 L 363.671875 374.363281 L 11.328125 374.363281 Z M 11.328125 0 " fill-opacity="1" fill-rule="nonzero"/>
        </g>
    </g>
</svg>